<svg width="320" height="320" viewBox="0 0 320 320" fill="none" xmlns="http://www.w3.org/2000/svg">
<path d="M319.5 160C319.5 248.089 248.089 319.5 160 319.5C71.9106 319.5 0.5 248.089 0.5 160C0.5 71.9106 71.9106 0.5 160 0.5C248.089 0.5 319.5 71.9106 319.5 160ZM47.5 160C47.5 222.132 97.868 272.5 160 272.5C222.132 272.5 272.5 222.132 272.5 160C272.5 97.868 222.132 47.5 160 47.5C97.868 47.5 47.5 97.868 47.5 160Z" fill="black" stroke="black"/>
<mask id="path-2-inside-1" fill="white">
<path fill-rule="evenodd" clip-rule="evenodd" d="M160 280C226.274 280 280 226.274 280 160C280 93.7258 226.274 40 160 40C93.7258 40 40 93.7258 40 160C40 226.274 93.7258 280 160 280ZM80.2112 223.549C66.3092 206.118 58 184.029 58 160C58 154.578 58.423 149.256 59.2378 144.063L110.003 160.558C110.07 166.69 111.241 172.557 113.326 177.97L80.2112 223.549ZM107.382 247.398C122.745 256.667 140.75 262 160 262C179.189 262 197.14 256.701 212.471 247.487L181.659 205.078C175.106 208.233 167.759 210 160 210C152.179 210 144.777 208.204 138.185 205.003L107.382 247.398ZM239.678 223.688L206.6 178.16C208.795 172.531 210 166.406 210 160C210 159.141 209.978 158.287 209.936 157.439L260.251 141.09C261.399 147.218 262 153.539 262 160C262 184.093 253.647 206.235 239.678 223.688ZM247.414 107.408L195.112 124.403C190.27 119.627 184.459 115.831 178 113.338V59.5832C207.445 64.8259 232.518 82.7029 247.414 107.408ZM142 59.5832C111.516 65.0108 85.7184 83.9796 71.048 110.048L122.611 126.802C127.863 120.892 134.494 116.235 142 113.338V59.5832Z"/>
</mask>
<path fill-rule="evenodd" clip-rule="evenodd" d="M160 280C226.274 280 280 226.274 280 160C280 93.7258 226.274 40 160 40C93.7258 40 40 93.7258 40 160C40 226.274 93.7258 280 160 280ZM80.2112 223.549C66.3092 206.118 58 184.029 58 160C58 154.578 58.423 149.256 59.2378 144.063L110.003 160.558C110.07 166.69 111.241 172.557 113.326 177.97L80.2112 223.549ZM107.382 247.398C122.745 256.667 140.75 262 160 262C179.189 262 197.14 256.701 212.471 247.487L181.659 205.078C175.106 208.233 167.759 210 160 210C152.179 210 144.777 208.204 138.185 205.003L107.382 247.398ZM239.678 223.688L206.6 178.16C208.795 172.531 210 166.406 210 160C210 159.141 209.978 158.287 209.936 157.439L260.251 141.09C261.399 147.218 262 153.539 262 160C262 184.093 253.647 206.235 239.678 223.688ZM247.414 107.408L195.112 124.403C190.27 119.627 184.459 115.831 178 113.338V59.5832C207.445 64.8259 232.518 82.7029 247.414 107.408ZM142 59.5832C111.516 65.0108 85.7184 83.9796 71.048 110.048L122.611 126.802C127.863 120.892 134.494 116.235 142 113.338V59.5832Z" fill="white"/>
<path d="M80.2112 223.549L79.4293 224.173L80.2482 225.2L81.0202 224.137L80.2112 223.549ZM59.2378 144.063L59.5468 143.112L58.4316 142.749L58.2498 143.908L59.2378 144.063ZM110.003 160.558L111.003 160.547L110.995 159.828L110.312 159.606L110.003 160.558ZM113.326 177.97L114.135 178.558L114.455 178.118L114.26 177.611L113.326 177.97ZM107.382 247.398L106.573 246.811L105.933 247.692L106.866 248.255L107.382 247.398ZM212.471 247.487L212.986 248.344L213.921 247.782L213.28 246.899L212.471 247.487ZM181.659 205.078L182.468 204.49L181.977 203.815L181.225 204.177L181.659 205.078ZM138.185 205.003L138.622 204.103L137.868 203.737L137.376 204.415L138.185 205.003ZM239.678 223.688L238.869 224.276L239.64 225.336L240.459 224.313L239.678 223.688ZM206.6 178.16L205.668 177.797L205.47 178.306L205.791 178.748L206.6 178.16ZM209.936 157.439L209.627 156.488L208.898 156.724L208.937 157.489L209.936 157.439ZM260.251 141.09L261.233 140.906L261.024 139.788L259.942 140.139L260.251 141.09ZM247.414 107.408L247.723 108.36L248.921 107.97L248.271 106.892L247.414 107.408ZM195.112 124.403L194.409 125.115L194.842 125.542L195.421 125.354L195.112 124.403ZM178 113.338H177V114.024L177.64 114.271L178 113.338ZM178 59.5832L178.175 58.5987L177 58.3894V59.5832H178ZM142 59.5832H143V58.3894L141.825 58.5987L142 59.5832ZM71.048 110.048L70.1765 109.557L69.5777 110.621L70.739 110.999L71.048 110.048ZM122.611 126.802L122.302 127.753L122.924 127.955L123.359 127.466L122.611 126.802ZM142 113.338L142.36 114.271L143 114.024V113.338H142ZM279 160C279 225.722 225.722 279 160 279V281C226.826 281 281 226.826 281 160H279ZM160 41C225.722 41 279 94.2781 279 160H281C281 93.1735 226.826 39 160 39V41ZM41 160C41 94.2781 94.2781 41 160 41V39C93.1735 39 39 93.1735 39 160H41ZM160 279C94.2781 279 41 225.722 41 160H39C39 226.826 93.1735 281 160 281V279ZM57 160C57 184.264 65.3913 206.571 79.4293 224.173L80.993 222.926C67.2272 205.665 59 183.795 59 160H57ZM58.2498 143.908C57.4271 149.152 57 154.526 57 160H59C59 154.631 59.4189 149.36 60.2257 144.218L58.2498 143.908ZM58.9287 145.014L109.694 161.509L110.312 159.606L59.5468 143.112L58.9287 145.014ZM109.003 160.568C109.071 166.822 110.266 172.807 112.393 178.33L114.26 177.611C112.216 172.307 111.069 166.558 111.003 160.547L109.003 160.568ZM112.517 177.382L79.4021 222.962L81.0202 224.137L114.135 178.558L112.517 177.382ZM106.866 248.255C122.38 257.615 140.563 263 160 263V261C140.937 261 123.11 255.72 107.899 246.542L106.866 248.255ZM160 263C179.375 263 197.504 257.649 212.986 248.344L211.956 246.63C196.776 255.753 179.002 261 160 261V263ZM180.85 205.666L211.662 248.075L213.28 246.899L182.468 204.49L180.85 205.666ZM160 211C167.913 211 175.407 209.197 182.093 205.979L181.225 204.177C174.805 207.268 167.606 209 160 209V211ZM137.748 205.902C144.473 209.168 152.024 211 160 211V209C152.333 209 145.081 207.24 138.622 204.103L137.748 205.902ZM108.191 247.986L138.994 205.59L137.376 204.415L106.573 246.811L108.191 247.986ZM240.487 223.1L207.409 177.572L205.791 178.748L238.869 224.276L240.487 223.1ZM207.532 178.523C209.771 172.78 211 166.532 211 160H209C209 166.28 207.819 172.281 205.668 177.797L207.532 178.523ZM211 160C211 159.124 210.978 158.253 210.934 157.388L208.937 157.489C208.979 158.321 209 159.158 209 160H211ZM210.245 158.39L260.56 142.041L259.942 140.139L209.627 156.488L210.245 158.39ZM263 160C263 153.477 262.393 147.094 261.233 140.906L259.268 141.275C260.405 147.342 261 153.601 261 160H263ZM240.459 224.313C254.564 206.689 263 184.328 263 160H261C261 183.858 252.729 205.781 238.897 223.063L240.459 224.313ZM247.105 106.457L194.803 123.452L195.421 125.354L247.723 108.36L247.105 106.457ZM195.814 123.691C190.876 118.82 184.949 114.948 178.36 112.405L177.64 114.271C183.969 116.714 189.664 120.433 194.409 125.115L195.814 123.691ZM179 113.338V59.5832H177V113.338H179ZM248.271 106.892C233.23 81.9464 207.912 63.8934 178.175 58.5987L177.825 60.5677C206.978 65.7585 231.807 83.4594 246.558 107.925L248.271 106.892ZM141.825 58.5987C111.039 64.0801 84.9897 83.2355 70.1765 109.557L71.9195 110.538C86.4471 84.7236 111.993 65.9416 142.175 60.5677L141.825 58.5987ZM122.92 125.85L71.357 109.097L70.739 110.999L122.302 127.753L122.92 125.85ZM141.64 112.405C133.983 115.361 127.219 120.11 121.864 126.137L123.359 127.466C128.506 121.673 135.005 117.11 142.36 114.271L141.64 112.405ZM141 59.5832V113.338H143V59.5832H141Z" fill="black" mask="url(#path-2-inside-1)"/>
</svg>
